<svg height="448pt" viewBox="0 -152 448 448" width="448pt" xmlns="http://www.w3.org/2000/svg"><path d="m228.664062 24h-45.152343c-8.699219.003906-17.234375 2.363281-24.695313 6.832031l-1.945312 1.167969h97.242187l-7.554687-3.777344c-5.558594-2.769531-11.683594-4.214844-17.894532-4.222656zm0 0"/><path d="m64 80c-17.671875 0-32 14.328125-32 32s14.328125 32 32 32 32-14.328125 32-32-14.328125-32-32-32zm0 48c-8.835938 0-16-7.164062-16-16s7.164062-16 16-16 16 7.164062 16 16-7.164062 16-16 16zm0 0"/><path d="m298.398438 32-8.125-6.96875c-18.859376-16.15625-42.875-25.03125-67.707032-25.03125h-45.964844c-15.050781.0351562-29.914062 3.308594-43.585937 9.601562l-48.589844 22.398438h41.359375l24.800782-14.878906c9.945312-5.96875 21.328124-9.121094 32.925781-9.121094h45.152343c8.695313.011719 17.265626 2.035156 25.046876 5.910156l36.175781 18.089844zm0 0"/><path d="m424 88c0-4.417969 3.582031-8 8-8h10.152344c-2.933594-3.433594-6.78125-5.96875-11.097656-7.304688l-11.269532-3.472656c-45.734375-14.074218-93.3125-21.226562-141.160156-21.222656h-121.023438l37.335938 32h85.0625c4.417969 0 8 3.582031 8 8s-3.582031 8-8 8h-88c-.941406 0-1.871094-.167969-2.753906-.496094-.898438-.320312-1.730469-.804687-2.453125-1.433594l-53.746094-46.070312h-30.605469l36.566406 32h12.992188c4.417969 0 8 3.582031 8 8s-3.582031 8-8 8h-16c-.980469-.003906-1.949219-.191406-2.863281-.542969-.855469-.328125-1.644531-.796875-2.34375-1.386719l-.378907-.328124-53.367187-45.742188h-16.519531l-10.765625-17.953125 13.101562 1.875 2.273438-15.84375-25.984375-3.710937-.296875-.488282-.589844.359375-29.128906-4.160156-2.273438 15.84375 22.488281 3.199219 12.519532 20.878906h-17.871094c-13.253906 0-24 10.746094-24 24v32c0 4.417969 3.582031 8 8 8h8c0-26.507812 21.492188-48 48-48s48 21.492188 48 48h200c0-26.507812 21.492188-48 48-48s48 21.492188 48 48h40v-16h-16c-4.417969 0-8-3.582031-8-8zm0 0"/><path d="m360 80c-17.671875 0-32 14.328125-32 32s14.328125 32 32 32 32-14.328125 32-32-14.328125-32-32-32zm0 48c-8.835938 0-16-7.164062-16-16s7.164062-16 16-16 16 7.164062 16 16-7.164062 16-16 16zm0 0"/></svg>