<svg viewBox="0 -16 512.00055 512" xmlns="http://www.w3.org/2000/svg"><path d="m470.003906 380.519531c59.820313-90.558593 55.355469-210.222656-10.972656-296.125l-71.976562 49.257813c22.003906 29.867187 35.179687 66.621094 35.179687 106.480468 0 33.957032-9.621094 65.632813-26.019531 92.769532zm0 0"/><path d="m242.132812 210.117188c-16.546874 0-30.015624 13.46875-30.015624 30.015624 0 16.546876 13.46875 30.015626 30.015624 30.015626 16.546876 0 30.019532-13.46875 30.019532-30.015626 0-16.546874-13.472656-30.015624-30.019532-30.015624zm0 0"/><path d="m242.132812 480.265625c72.980469 0 141.683594-33.699219 187.117188-90.320313l-50.601562-32.667968c-33.050782 38.464844-81.933594 62.957031-136.515626 62.957031-99.3125 0-180.097656-80.789063-180.097656-180.101563s80.785156-180.097656 180.097656-180.097656c48.597657 0 92.675782 19.425782 125.105469 50.816406l50.160157-34.335937c-45.363282-48.617187-108.339844-76.515625-175.265626-76.515625-132.40625 0-242.132812 107.726562-242.132812 240.132812s109.726562 240.132813 242.132812 240.132813zm0 0"/><path d="m242.132812 90.050781c-82.75 0-150.082031 67.332031-150.082031 150.082031s67.332031 150.082032 150.082031 150.082032 150.082032-67.332032 150.082032-150.082032-67.332032-150.082031-150.082032-150.082031zm75.042969 54.566407 21.222657 21.222656-21.222657 21.234375-21.222656-21.222657zm-75.042969-30.765626 21.222657 21.222657-21.222657 21.222656-21.222656-21.222656zm-74.292968 30.765626 21.238281 21.238281-21.222656 21.222656-21.238281-21.238281zm-51.988282 95.515624 21.222657-21.222656 21.222656 21.222656-21.222656 21.222657zm51.988282 95.515626-21.222656-21.222657 21.238281-21.238281 21.222656 21.222656zm74.292968 30.765624-21.222656-21.222656 21.222656-21.222656 21.222657 21.222656zm0-66.246093c-33.109374 0-60.03125-26.925781-60.03125-60.035157 0-33.109374 26.921876-60.03125 60.03125-60.03125 33.109376 0 60.035157 26.921876 60.035157 60.03125 0 33.109376-26.925781 60.035157-60.035157 60.035157zm75.042969 35.480469-21.222656-21.238282 21.222656-21.222656 21.222657 21.238281zm30.777344-74.292969-21.238281-21.222657 21.222656-21.222656 21.238281 21.222656zm0 0"/></svg>